<?xml version="1.0" encoding="utf-8"?>
<!-- Generator: Adobe Illustrator 25.2.0, SVG Export Plug-In . SVG Version: 6.00 Build 0)  -->
<svg version="1.1" id="Layer_1" xmlns="http://www.w3.org/2000/svg" xmlns:xlink="http://www.w3.org/1999/xlink" x="0px" y="0px"
	 viewBox="0 0 310 310" style="enable-background:new 0 0 310 310;" xml:space="preserve">
<style type="text/css">
	.st0{fill:#010101;}
	.st1{fill:#EF382E;}
	.st2{fill:#FCFCFC;}
</style>
<rect x="0" class="st0" width="310" height="310"/>
<g>
	<path class="st1" d="M280,170.2c0,8.8-7.1,15.9-15.9,15.9c-8.8,0-15.9-7.1-15.9-15.9s7.1-15.9,15.9-15.9
		C272.9,154.2,280,161.4,280,170.2"/>
	<path class="st2" d="M185.2,123.1l21.6-31.5V59.7h-68.9L116,91.6h52l-26.8,38.9l15.9,27.6c4.7-2.7,10.3-4.3,16.1-4.3
		c17.8,0,32.3,14.4,32.3,32.3s-14.5,32.3-32.3,32.3S141,204,141,186.1h-31.9c0,35.4,28.7,64.2,64.2,64.2c35.4,0,64.2-28.7,64.2-64.2
		C237.4,154.7,214.9,128.6,185.2,123.1"/>
	<path class="st2" d="M94,59.7c-11.7,0-22.7,3.2-32.1,8.6v-8.6H30v126.4h31.9v-62.3h0c0-17.7,14.4-32.1,32.1-32.1v0l10.7-0.1
		l21.9-31.9C126.7,59.7,94,59.7,94,59.7z"/>
</g>
</svg>
